<svg width="62" height="70" viewBox="0 0 62 70" fill="none" xmlns="http://www.w3.org/2000/svg">
<path d="M23.6673 12.5379H22.7229V11.5936C22.7229 11.0271 22.2637 10.5677 21.697 10.5677C21.1303 10.5677 20.6711 11.0271 20.6711 11.5936V12.5379H19.7267C19.16 12.5379 18.7008 12.9973 18.7008 13.5639C18.7008 14.1304 19.16 14.5898 19.7267 14.5898H20.6711V15.5343C20.6711 16.1008 21.1303 16.5602 21.697 16.5602C22.2637 16.5602 22.7229 16.1008 22.7229 15.5343V14.5898H23.6673C24.234 14.5898 24.6932 14.1304 24.6932 13.5639C24.6932 12.9973 24.234 12.5379 23.6673 12.5379Z" fill="white"/>
<path d="M42.2719 12.5379H41.3276V11.5936C41.3276 11.0271 40.8683 10.5677 40.3016 10.5677C39.7349 10.5677 39.2757 11.0271 39.2757 11.5936V12.5379H38.3314C37.7647 12.5379 37.3054 12.9973 37.3054 13.5639C37.3054 14.1304 37.7647 14.5898 38.3314 14.5898H39.2757V15.5343C39.2757 16.1008 39.7349 16.5602 40.3016 16.5602C40.8683 16.5602 41.3276 16.1008 41.3276 15.5343V14.5898H42.2719C42.8386 14.5898 43.2978 14.1304 43.2978 13.5639C43.2978 12.9973 42.8386 12.5379 42.2719 12.5379Z" fill="white"/>
<path d="M23.6673 26.6295H22.7229V25.6852C22.7229 25.1186 22.2637 24.6592 21.697 24.6592C21.1303 24.6592 20.6711 25.1186 20.6711 25.6852V26.6295H19.7267C19.16 26.6295 18.7008 27.0889 18.7008 27.6555C18.7008 28.222 19.16 28.6814 19.7267 28.6814H20.6711V29.6257C20.6711 30.1923 21.1303 30.6517 21.697 30.6517C22.2637 30.6517 22.7229 30.1923 22.7229 29.6257V28.6814H23.6673C24.234 28.6814 24.6932 28.222 24.6932 27.6555C24.6932 27.0889 24.234 26.6295 23.6673 26.6295Z" fill="white"/>
<path d="M42.2719 26.6295H41.3276V25.6852C41.3276 25.1186 40.8684 24.6592 40.3017 24.6592C39.735 24.6592 39.2757 25.1186 39.2757 25.6852V26.6295H38.3314C37.7647 26.6295 37.3055 27.0889 37.3055 27.6555C37.3055 28.222 37.7647 28.6814 38.3314 28.6814H39.2757V29.6257C39.2757 30.1923 39.735 30.6517 40.3017 30.6517C40.8684 30.6517 41.3276 30.1923 41.3276 29.6257V28.6814H42.2719C42.8386 28.6814 43.2979 28.222 43.2979 27.6555C43.2979 27.0889 42.8386 26.6295 42.2719 26.6295Z" fill="white"/>
<path d="M59.456 29.0518H45.8792C44.7194 29.0518 43.7757 29.9953 43.7757 31.1551V33.9327C43.7757 35.0924 44.7192 36.0359 45.8792 36.0359H46.0764V40.68C45.1632 39.9606 44.0125 39.5297 42.7625 39.5297H18.9675C17.7175 39.5297 16.5669 39.9605 15.6537 40.68V36.026H16.1209C17.2807 36.026 18.2243 35.0825 18.2243 33.9227V31.1451C18.2243 29.9853 17.2808 29.0418 16.1209 29.0418H2.54403C1.38425 29.0418 0.440613 29.9853 0.440613 31.1451V33.9227C0.440613 35.0825 1.38411 36.026 2.54403 36.026H3.0112V49.1205C3.0112 51.2153 4.62462 52.9395 6.67404 53.1182V55.1644C6.67404 56.7895 7.99625 58.1116 9.62129 58.1116H11.9723V67.9481H10.5034C9.9367 67.9481 9.47746 68.4075 9.47746 68.974C9.47746 69.5406 9.9367 70 10.5034 70H20.7546C21.3213 70 21.7805 69.5406 21.7805 68.974C21.7805 68.4075 21.3213 67.9481 20.7546 67.9481H19.2857V58.1116H42.4446V67.9481H40.9757C40.409 67.9481 39.9498 68.4075 39.9498 68.974C39.9498 69.5406 40.409 70 40.9757 70H51.2271C51.7938 70 52.253 69.5406 52.253 68.974C52.253 68.4075 51.7938 67.9481 51.2271 67.9481H49.758V58.1116H52.1092C53.7342 58.1116 55.0563 56.7895 55.0563 55.1644V53.1182C57.1057 52.9396 58.7191 51.2153 58.7191 49.1205V36.0359H59.4563C60.6161 36.0359 61.5597 35.0924 61.5597 33.9327V31.1551C61.5595 29.9954 60.616 29.0518 59.456 29.0518ZM18.9675 41.5818H42.7626C44.59 41.5818 46.0766 43.0684 46.0766 44.8957V51.0826H15.6536V44.8957C15.6536 43.0684 17.1403 41.5818 18.9675 41.5818ZM2.54403 33.9741C2.51573 33.9741 2.49263 33.951 2.49263 33.9227V31.1451C2.49263 31.1168 2.51573 31.0937 2.54403 31.0937H16.1209C16.1492 31.0937 16.1723 31.1168 16.1723 31.1451V33.9227C16.1723 33.951 16.1492 33.9741 16.1209 33.9741H2.54403ZM7.02513 51.0827C5.94328 51.0826 5.06308 50.2024 5.06308 49.1206V36.0261H13.6017V51.0827H7.02513ZM17.2337 67.9481H14.0243V58.1117H17.2337V67.9481ZM47.7059 67.9481H44.4965V58.1117H47.7059V67.9481ZM53.0041 55.1644C53.0041 55.6581 52.6026 56.0597 52.109 56.0597H9.62129C9.1276 56.0597 8.72592 55.6581 8.72592 55.1644V53.1344H53.0041V55.1644ZM56.667 49.1206C56.667 50.2025 55.7868 51.0826 54.7049 51.0826H48.1285V36.0361H56.667V49.1206ZM59.5076 33.9328C59.5076 33.9611 59.4845 33.9842 59.4562 33.9842H45.8793C45.851 33.9842 45.8279 33.9611 45.8279 33.9328V31.1552C45.8279 31.1269 45.851 31.1038 45.8793 31.1038H59.4562C59.4845 31.1038 59.5076 31.1269 59.5076 31.1552V33.9328Z" fill="white"/>
<path d="M53.6956 8.45511C53.6959 3.793 49.9029 0 45.2408 0H16.4864C11.8242 0 8.03131 3.793 8.03131 8.45511V25.269C8.03145 25.8357 8.49069 26.2949 9.05739 26.2949C9.62409 26.2949 10.0833 25.8355 10.0833 25.269V8.45511C10.0833 4.92435 12.9558 2.05188 16.4864 2.05188H45.2406C48.7712 2.05188 51.6437 4.92435 51.6437 8.4599L51.7232 25.2737C51.7259 25.8387 52.1846 26.2949 52.749 26.2949C52.7506 26.2949 52.7522 26.2949 52.7539 26.2949C53.3206 26.2922 53.7778 25.8307 53.775 25.264L53.6956 8.45511Z" fill="white"/>
</svg>
